<svg width="40" height="40" viewBox="0 0 40 40" fill="none" xmlns="http://www.w3.org/2000/svg">
<g clip-path="url(#clip0_386_510)">
<path d="M20 40C31.0457 40 40 31.0457 40 20C40 8.9543 31.0457 0 20 0C8.9543 0 0 8.9543 0 20C0 31.0457 8.9543 40 20 40Z" fill="#C3D2DF"/>
<path d="M32.0474 19.9984C32.0436 19.5969 32.0436 19.2151 32.0436 18.8408C32.0436 17.6174 32.0491 16.48 31.9744 15.0331C31.9281 13.9655 31.762 12.9768 31.4123 12.1085C31.1067 11.2864 30.6349 10.5805 30.0248 9.97308C29.4545 9.37496 28.742 8.91357 27.8922 8.5851C27.0146 8.24191 26.0395 8.05616 24.9675 8.02674C23.9695 7.96192 22.2111 7.94394 20 7.9532C17.7889 7.94394 16.03 7.96246 15.0326 8.02674C13.9605 8.05616 12.986 8.24191 12.1079 8.5851C11.2581 8.91357 10.5456 9.37496 9.97524 9.97308C9.36514 10.5805 8.8934 11.2864 8.5878 12.1085C8.23808 12.9768 8.07193 13.9655 8.02563 15.0331C7.92812 16.9223 7.96734 18.283 7.95264 19.9979V20.0006C7.95645 20.4021 7.95645 20.7839 7.95645 21.1582C7.95645 22.3816 7.951 23.519 8.02563 24.9659C8.07193 26.0335 8.23808 27.0222 8.5878 27.8906C8.8934 28.7126 9.36514 29.4185 9.97524 30.0259C10.5456 30.624 11.2581 31.0854 12.1079 31.4139C12.9855 31.7571 13.9605 31.9429 15.0326 31.9723C16.0305 32.0371 17.7889 32.0551 20 32.0458C22.2111 32.0551 23.9695 32.0365 24.9675 31.9723C26.0395 31.9429 27.0141 31.7571 27.8922 31.4139C28.742 31.0854 29.4545 30.624 30.0248 30.0259C30.6349 29.4185 31.1067 28.7126 31.4123 27.8906C31.762 27.0222 31.9281 26.0335 31.9744 24.9659C32.0719 23.0767 32.0327 21.716 32.0474 20.0011V19.9984ZM29.808 24.8542V24.8727C29.7688 25.7628 29.6321 26.5053 29.4005 27.0805L29.3897 27.1078L29.3793 27.135C29.1914 27.6411 28.9016 28.0834 28.4947 28.4892L28.4745 28.5088L28.4549 28.529C28.1073 28.894 27.6672 29.1756 27.1099 29.3913L27.1018 29.3946C26.4633 29.6441 25.7252 29.7819 24.9076 29.8048L24.8673 29.8058L24.8269 29.8086C24.0959 29.856 22.8125 29.8799 21.0105 29.8799C20.6886 29.8799 20.3536 29.8788 20.0082 29.8778H19.9902C19.6449 29.8788 19.3098 29.8799 18.9879 29.8799C17.1865 29.8799 15.9025 29.856 15.1715 29.8086L15.1312 29.8058L15.0909 29.8048C14.2738 29.7824 13.5351 29.6441 12.8967 29.3946L12.8885 29.3913C12.3312 29.1756 11.8911 28.894 11.543 28.529L11.5234 28.5088L11.5032 28.4892C11.0958 28.0834 10.8065 27.6411 10.6186 27.135L10.6082 27.1078L10.5973 27.0805C10.3658 26.5053 10.2291 25.7628 10.1904 24.8727V24.8542C10.1229 23.5566 10.1234 22.5064 10.1234 21.3951C10.1234 20.9495 10.1234 20.4892 10.1196 20C10.1234 19.5109 10.1234 19.0506 10.1234 18.605C10.1234 17.4932 10.1223 16.4429 10.1899 15.1454V15.1274C10.2291 14.2373 10.3658 13.4948 10.5973 12.9196L10.6082 12.8923L10.6186 12.8651C10.8065 12.359 11.0958 11.9162 11.5032 11.5103L11.5234 11.4907L11.543 11.4706C11.8911 11.1056 12.3307 10.824 12.8885 10.6082L12.8967 10.605C13.5351 10.3549 14.2738 10.2171 15.0903 10.1948L15.1312 10.1937L15.1715 10.191C15.9025 10.1436 17.1865 10.1196 18.9885 10.1196C19.3104 10.1196 19.6449 10.1207 19.9897 10.1218H20.0077C20.353 10.1207 20.6869 10.1196 21.0094 10.1196C22.8114 10.1196 24.0954 10.1436 24.8264 10.191L24.8667 10.1937L24.9076 10.1948C25.7247 10.2171 26.4628 10.3549 27.1012 10.605L27.1094 10.6082C27.6666 10.824 28.1068 11.1056 28.4543 11.4706L28.474 11.4907L28.4941 11.5103C28.9016 11.9162 29.1908 12.359 29.3788 12.8651L29.3891 12.8923L29.4 12.9196C29.6315 13.4948 29.7682 14.2373 29.8069 15.1274V15.1454C29.8745 16.4429 29.8739 17.4932 29.8739 18.605C29.8739 19.0506 29.8739 19.5109 29.8777 20C29.8739 20.4892 29.8739 20.9495 29.8739 21.3951C29.8739 22.5069 29.875 23.5572 29.8075 24.8542H29.808Z" fill="#434E65"/>
<path d="M19.9999 13.8135C16.5838 13.8135 13.8149 16.5824 13.8149 19.9984C13.8149 23.4145 16.5838 26.1834 19.9999 26.1834C23.4159 26.1834 26.1848 23.4145 26.1848 19.9984C26.1848 16.5824 23.4159 13.8135 19.9999 13.8135ZM19.9999 24.0148C17.785 24.0148 15.9835 22.2128 15.9835 19.9984C15.9835 17.7841 17.785 15.9821 19.9999 15.9821C22.2148 15.9821 24.0162 17.7835 24.0162 19.9984C24.0162 22.2133 22.2148 24.0148 19.9999 24.0148Z" fill="#434E65"/>
<path d="M26.4306 12.1226C25.632 12.1226 24.9849 12.7697 24.9849 13.5688C24.9849 14.368 25.6326 15.0151 26.4306 15.0151C27.2286 15.0151 27.8769 14.368 27.8769 13.5688C27.8769 12.7697 27.2292 12.1226 26.4306 12.1226Z" fill="#434E65"/>
</g>
<defs>
<clipPath id="clip0_386_510">
<rect width="40" height="40" fill="white"/>
</clipPath>
</defs>
</svg>
