<svg width="40" height="40" viewBox="0 0 40 40" fill="none" xmlns="http://www.w3.org/2000/svg">
<g clip-path="url(#clip0_386_521)">
<path d="M20 40C31.0457 40 40 31.0457 40 20C40 8.9543 31.0457 0 20 0C8.9543 0 0 8.9543 0 20C0 31.0457 8.9543 40 20 40Z" fill="#C3D2DF"/>
<path d="M30.4275 13.7692V17.8869C28.2976 17.8869 26.3245 17.2065 24.7132 16.0511V24.378C24.7132 27.3097 23.0382 29.858 20.5956 31.1158C19.5595 31.6491 18.3856 31.9504 17.1425 31.9504C12.9682 31.9504 9.57227 28.5534 9.57227 24.378C9.57227 20.2026 12.9687 16.8051 17.1425 16.8051C17.4944 16.8051 17.8403 16.829 18.1796 16.8759V21.0807C17.8523 20.9777 17.5036 20.9222 17.1425 20.9222C15.2359 20.9222 13.6894 22.4692 13.6894 24.3774C13.6894 26.2856 15.2353 27.8322 17.1425 27.8322C19.0496 27.8322 20.5956 26.2851 20.5956 24.3774V8.05005H24.7132V8.05168C24.7132 11.2095 27.2718 13.7692 30.4275 13.7692Z" fill="#434E65"/>
</g>
<defs>
<clipPath id="clip0_386_521">
<rect width="40" height="40" fill="white"/>
</clipPath>
</defs>
</svg>
