<svg width="40" height="40" viewBox="0 0 40 40" fill="none" xmlns="http://www.w3.org/2000/svg">
<g clip-path="url(#clip0_386_517)">
<path d="M20 40C31.0457 40 40 31.0457 40 20C40 8.9543 31.0457 0 20 0C8.9543 0 0 8.9543 0 20C0 31.0457 8.9543 40 20 40Z" fill="#C3D2DF"/>
<path d="M32.0023 13.9312C31.7964 13.138 31.1395 12.0785 29.7874 11.7021C28.0143 11.2473 23.5023 11.2227 20.0007 11.1748C18.2499 11.1988 16.2464 11.2167 14.4591 11.2859C12.6718 11.3546 11.1003 11.4744 10.214 11.7021C8.8614 12.078 8.20499 13.1375 7.99908 13.9312C7.64881 15.0751 7.47559 18.1382 7.47559 20.0001C7.47559 21.862 7.64881 24.9256 7.99908 26.069C8.20499 26.8627 8.8614 27.9222 10.214 28.298C11.9871 28.7534 16.4991 28.7774 20.0007 28.8254C21.7515 28.8014 23.755 28.7834 25.5423 28.7142C27.3296 28.6456 28.9012 28.5257 29.7874 28.298C31.1395 27.9222 31.7964 26.8627 32.0023 26.069C32.3521 24.925 32.5258 21.862 32.5258 20.0001C32.5258 18.1382 32.3521 15.0746 32.0023 13.9312ZM17.4377 23.725V16.2752L23.9849 20.0001L17.4377 23.7244V23.725Z" fill="#434E65"/>
</g>
<defs>
<clipPath id="clip0_386_517">
<rect width="40" height="40" fill="white"/>
</clipPath>
</defs>
</svg>
