<svg width="40" height="40" viewBox="0 0 40 40" fill="none" xmlns="http://www.w3.org/2000/svg">
<g clip-path="url(#clip0_386_506)">
<path d="M20 40C31.0457 40 40 31.0457 40 20C40 8.9543 31.0457 0 20 0C8.9543 0 0 8.9543 0 20C0 31.0457 8.9543 40 20 40Z" fill="#C3D2DF"/>
<path d="M23.0064 16.128V19.8654H28.5328L27.646 25.6244H23.007V39.7745C22.0254 39.9199 21.022 40 19.9968 40C18.8986 40 17.8298 39.9128 16.7828 39.738V25.6244H11.7217V19.8654H16.7828V15.4808C16.7975 13.4228 17.241 11.2853 18.9645 9.60532C20.164 8.44176 21.8876 7.75812 24.3089 7.72925C25.8652 7.74396 27.3485 7.88177 28.7665 8.11492V13.0159H26.258C25.3711 13.0088 24.6292 13.212 24.0474 13.656C23.3349 14.2307 23.0152 15.0739 23.0075 16.128H23.0064Z" fill="#434E65"/>
</g>
<defs>
<clipPath id="clip0_386_506">
<rect width="40" height="40" fill="white"/>
</clipPath>
</defs>
</svg>
