<?xml version="1.0" encoding="UTF-8"?>
<svg id="Layer_1" xmlns="http://www.w3.org/2000/svg" version="1.1" viewBox="0 0 26 24">
  <!-- Generator: Adobe Illustrator 29.5.1, SVG Export Plug-In . SVG Version: 2.1.0 Build 141)  -->
  <defs>
    <style>
      .st0 {
        fill: #c3d2df;
      }
    </style>
  </defs>
  <path class="st0" d="M20.58,8.25c1.73,0,3.05,1.62,2.64,3.36l-1.91,8.04h0c-.29,1.25-1.4,2.1-2.64,2.1H7.34c-1.25,0-2.34-.86-2.64-2.09h0s-1.91-8.05-1.91-8.05h0c-.41-1.73.91-3.36,2.64-3.36h15.16ZM5.43,10.7c-.19,0-.29.14-.29.27v.05s0,0,0,0l1.91,8.05c.03.12.14.22.29.22h11.33c.15,0,.26-.1.28-.21h0s1.91-8.05,1.91-8.05h0s0-.06,0-.06c0-.13-.1-.27-.29-.27H5.43Z"/>
  <path class="st0" d="M7.1,10c-.38.53-1.13.66-1.67.29-.54-.37-.68-1.1-.3-1.63l1.97,1.34ZM9.42,2.66c.4-.45,1.09-.54,1.6-.2.51.35.66,1.01.36,1.53l-.07.1-4.21,5.9-1.97-1.34,4.21-5.9.08-.1Z"/>
  <path class="st0" d="M14.99,2.46c.51-.35,1.2-.25,1.6.2l.08.1,4.21,5.9c.38.53.25,1.26-.3,1.63-.54.37-1.29.24-1.67-.29l-4.21-5.9-.07-.1c-.3-.52-.15-1.18.36-1.53Z"/>
</svg>