<svg width="341" height="35" viewBox="0 0 341 35" fill="none" xmlns="http://www.w3.org/2000/svg">
<path d="M0 0.489525H3.01724L27.0299 29.8991V0.489525H29.9447V34.5217H27.269L2.91477 4.66812V34.5103H0V0.489525Z" fill="#243622"/>
<path d="M50.1205 0.489525H53.1833L68.1101 34.5217H65.0473L61.0167 25.1854H42.2984L38.2679 34.5217H35.2051L50.1205 0.489525ZM59.8895 22.5097L51.6804 3.44984L43.4598 22.5097H59.8895Z" fill="#243622"/>
<path d="M80.3155 3.15381H67.6772V0.489525H95.8685V3.16519H83.2303V34.5217H80.3155V3.15381Z" fill="#243622"/>
<path d="M102.154 19.5949V0.489525H105.068V20.3692C105.068 26.8818 107.209 32.3243 115.817 32.3243C124.424 32.3243 126.508 26.8818 126.508 20.3692V0.489525H129.423V19.5949C129.423 26.7452 127.772 34.9999 115.817 34.9999C103.861 34.9999 102.154 26.7338 102.154 19.5949Z" fill="#243622"/>
<path d="M137.985 0.489525H151.648C157.967 0.489525 164.673 3.59785 164.673 11.7729C164.673 17.6593 161.223 20.9157 156.851 22.3161L164.821 34.5217H161.121L153.777 22.9537C153.048 23.0448 152.274 23.1018 151.488 23.1018H140.888V34.5217H137.973V0.489525H137.985ZM151.352 20.5172C158.012 20.5172 161.508 16.9648 161.508 11.7729C161.508 6.58094 158.012 3.07411 151.352 3.07411H140.9V20.5286H151.352V20.5172Z" fill="#243622"/>
<path d="M172.552 0.489525H197.339V3.16519H175.467V15.8034H194.914V18.4791H175.467V31.8461H197.339V34.5217H172.552V0.489525Z" fill="#243622"/>
<path d="M218.346 17.5C218.346 7.6285 225.735 0 236.575 0C239.637 0 243.133 0.48959 246.253 2.09499V4.62264C242.894 2.92615 239.694 2.48211 236.575 2.48211C227.682 2.48211 221.409 9.04034 221.409 17.5C221.409 25.9597 227.58 32.5179 236.484 32.5179C239.842 32.5179 243.099 32.0852 246.446 30.3774V32.905C242.996 34.704 239.637 35 236.484 35C225.644 35 218.357 27.417 218.357 17.5H218.346Z" fill="#243622"/>
<path d="M266.428 0.489525H269.491L284.418 34.5217H281.355L277.324 25.1854H258.606L254.575 34.5217H251.513L266.428 0.489525ZM276.197 22.5097L267.988 3.44984L259.767 22.5097H276.197Z" fill="#243622"/>
<path d="M290.885 0.489525H293.8V31.9371H312.267V34.5103H290.874V0.489525H290.885Z" fill="#243622"/>
<path d="M318.985 0.489525H321.9V31.9371H340.368V34.5103H318.974V0.489525H318.985Z" fill="#243622"/>
</svg>
