<svg width="26" height="24" viewBox="0 0 26 24" fill="none" xmlns="http://www.w3.org/2000/svg">
<path d="M20.582 8.24976C22.3091 8.24976 23.6364 9.8665 23.2216 11.608L21.3111 19.6503L21.3117 19.6509C21.021 20.8978 19.9134 21.7498 18.6708 21.7498H7.33634C6.08581 21.7497 4.99569 20.8915 4.69786 19.6611L4.69667 19.6557L2.78552 11.6068L2.78611 11.6062C2.37253 9.8723 3.69748 8.24976 5.42518 8.24976H20.582ZM5.42518 10.7039C5.23892 10.7039 5.13464 10.8479 5.13366 10.9765L5.13957 11.0304L5.14016 11.0328L7.05132 19.0806C7.08256 19.2017 7.19305 19.2956 7.33634 19.2956H18.6708C18.8238 19.2956 18.9298 19.1932 18.9547 19.0865L18.9558 19.0817L20.867 11.0328V11.0322L20.8735 10.9765C20.8734 10.8449 20.7696 10.7039 20.582 10.7039H5.42518Z" fill="#243622"/>
<path d="M7.10308 9.99705C6.72366 10.5286 5.97478 10.6595 5.43031 10.2892C4.88586 9.9188 4.75233 9.18771 5.13166 8.6562L7.10308 9.99705ZM9.42125 2.65702C9.81818 2.20619 10.5085 2.11336 11.0189 2.46056C11.5292 2.80784 11.6786 3.472 11.3827 3.99157L11.3176 4.09353L7.10308 9.99705L5.13166 8.6562L9.34615 2.7521L9.42125 2.65702Z" fill="#243622"/>
<path d="M14.9892 2.46058C15.4996 2.11336 16.1899 2.20616 16.5868 2.65704L16.6619 2.75212L20.8764 8.65619C21.2557 9.18768 21.1222 9.91878 20.5778 10.2891C20.0333 10.6595 19.2844 10.5286 18.905 9.99704L14.6905 4.09354L14.6254 3.99159C14.3294 3.47198 14.4788 2.80786 14.9892 2.46058Z" fill="#243622"/>
</svg>
